<svg width="439" height="69" viewBox="0 0 439 69" fill="none" xmlns="http://www.w3.org/2000/svg">
<path d="M15.5 6.21875H15.5625C16.8542 6.13542 18.5208 6.09375 20.5625 6.09375C23.7292 6.09375 26.1458 7.07292 27.8125 9.03125C29.5 10.9896 30.3438 13.5312 30.3438 16.6562C30.3438 19.8229 29.5729 22.5729 28.0312 24.9062C26.5104 27.2188 24.125 28.375 20.875 28.375C18.9583 28.375 17.0625 28.1354 15.1875 27.6562C15.1875 20.3229 15.2917 13.1771 15.5 6.21875ZM29.0625 16.6562C29.0625 13.9688 28.25 11.7083 26.625 9.875C25.0208 8.04167 22.8958 7.22917 20.25 7.4375C20.0833 15.4583 20 21.8854 20 26.7188C20.4167 26.8438 21.0521 26.9479 21.9062 27.0312C24.3438 26.7604 26.1458 25.6146 27.3125 23.5938C28.4792 21.5729 29.0625 19.2604 29.0625 16.6562ZM9.5 45.7188C9.45833 47.2604 7.04167 48.2604 2.25 48.7188C2.08333 49.0521 2.08333 49.5417 2.25 50.1875C5.79167 50.0625 9.42708 50 13.1562 50C17.5938 50 21.8542 50.0625 25.9375 50.1875C26.1042 49.8542 26.1042 49.3646 25.9375 48.7188C19.0208 48.3021 15.5417 47.3021 15.5 45.7188C15.2917 39.8646 15.1875 34.6354 15.1875 30.0312C17.5417 30.5104 19.7188 30.75 21.7188 30.75C25.1354 37.1042 29.6354 43.5208 35.2188 50C36.2812 50 37.8125 50.0104 39.8125 50.0312C41.8333 50.0521 43.6458 50.0729 45.25 50.0938C46.875 50.1146 48.4167 50.1458 49.875 50.1875C50.0417 49.8125 50.0417 49.3229 49.875 48.7188C46.4583 48.4688 43.5729 47.6354 41.2188 46.2188C38.8854 44.7812 36.1562 42.1354 33.0312 38.2812C30.9062 35.5938 28.9896 32.7604 27.2812 29.7812C30.3646 28.7604 32.7917 27.0625 34.5625 24.6875C36.3333 22.3125 37.2188 19.6354 37.2188 16.6562C37.2188 12.9062 36.0104 9.875 33.5938 7.5625C31.1771 5.22917 27.8333 4.0625 23.5625 4.0625C9.47917 4.22917 2.39583 4.22917 2.3125 4.0625C2.1875 4.5625 2.1875 5.05208 2.3125 5.53125C7.10417 5.98958 9.52083 6.98958 9.5625 8.53125C9.77083 13.4271 9.875 19.25 9.875 26C9.875 32.6042 9.75 39.1771 9.5 45.7188ZM8.21875 45.6562C8.46875 40.4479 8.59375 33.8958 8.59375 26C8.59375 19.2917 8.48958 13.4896 8.28125 8.59375C8.23958 7.82292 5.91667 7.20833 1.3125 6.75C0.958333 5.375 1 4.03125 1.4375 2.71875C3.72917 2.84375 6.21875 2.90625 8.90625 2.90625C11.5938 2.90625 14.6771 2.88542 18.1562 2.84375C21.6354 2.80208 24.1875 2.78125 25.8125 2.78125C30.8542 2.78125 34.8125 4.0625 37.6875 6.625C40.5625 9.16667 42 12.5104 42 16.6562C42 19.5938 41.1562 22.3021 39.4688 24.7812C37.7812 27.2604 35.5104 29.1354 32.6562 30.4062C34.0729 32.7188 35.7188 35.0938 37.5938 37.5312C39.8021 40.4688 41.9688 42.8021 44.0938 44.5312C46.2396 46.2604 48.6146 47.25 51.2188 47.5C51.5521 48.8333 51.5104 50.1771 51.0938 51.5312C48.1146 51.4479 42.6354 51.3646 34.6562 51.2812C28.8021 44.4479 24.2292 38.0312 20.9375 32.0312H20C20 35.9062 20.1042 40.4479 20.3125 45.6562C20.3125 45.7812 20.3646 45.9062 20.4688 46.0312C20.5729 46.1562 20.9792 46.3542 21.6875 46.625C22.3958 46.8958 23.4688 47.1354 24.9062 47.3438C26.3646 47.5312 27.1771 47.6458 27.3438 47.6875C27.6979 48.8542 27.6354 50.1354 27.1562 51.5312C19.4688 51.3646 14.8021 51.2812 13.1562 51.2812C12.0312 51.2812 8.10417 51.3646 1.375 51.5312C0.854167 50.0938 0.854167 48.75 1.375 47.5C5.89583 47.0417 8.17708 46.4271 8.21875 45.6562ZM68.5312 23.625C70.1979 23.625 71.4062 24.1667 72.1562 25.25C72.9062 26.3125 73.2812 27.6458 73.2812 29.25C73.2812 29.8542 73.1771 30.5417 72.9688 31.3125H60.7812C61.4271 28.7083 62.4688 26.7812 63.9062 25.5312C65.3646 24.2604 66.9062 23.625 68.5312 23.625ZM60.4688 33.4375H77.5C77.8333 32.3958 78 31.3229 78 30.2188C78 27.7812 77.3021 25.7396 75.9062 24.0938C74.5312 22.4271 72.3333 21.5938 69.3125 21.5938C65.375 21.5938 62.0625 23.0208 59.375 25.875C56.6875 28.7292 55.3438 32.3542 55.3438 36.75C55.3438 41.4375 56.625 44.9688 59.1875 47.3438C61.75 49.7188 64.7604 50.9062 68.2188 50.9062C70.7812 50.9062 73.1562 50.2188 75.3438 48.8438C77.5521 47.4479 79.1667 45.3542 80.1875 42.5625C79.8958 42.2292 79.4896 42 78.9688 41.875C78.8854 42 78.6354 42.3438 78.2188 42.9062C77.8229 43.4479 77.5312 43.8438 77.3438 44.0938C77.1562 44.3229 76.8125 44.6667 76.3125 45.125C75.8333 45.5625 75.3646 45.8854 74.9062 46.0938C74.4688 46.3021 73.9062 46.5104 73.2188 46.7188C72.5312 46.9062 71.7812 47 70.9688 47C67.7604 47 65.2083 46.0521 63.3125 44.1562C61.4167 42.2396 60.4271 39.6667 60.3438 36.4375C60.3438 35.7083 60.3854 34.7083 60.4688 33.4375ZM78.4688 40.4062C79.7812 40.6979 80.8438 41.3542 81.6562 42.375C80.4688 45.625 78.6354 48.0729 76.1562 49.7188C73.6771 51.3646 71.0312 52.1875 68.2188 52.1875C64.3854 52.1875 61.0625 50.8958 58.25 48.3125C55.4583 45.7292 54.0625 41.875 54.0625 36.75C54.0625 32.1042 55.4896 28.2083 58.3438 25.0625C61.2188 21.8958 65.2812 20.3125 70.5312 20.3125C78.4688 20.3125 82.4375 23.6146 82.4375 30.2188C82.4375 31.5104 82.1354 33.0104 81.5312 34.7188H64.75V36.75C64.8542 39.2708 65.5417 41.3229 66.8125 42.9062C68.0833 44.4688 69.8333 45.3854 72.0625 45.6562C73.375 45.5312 74.4583 45.0833 75.3125 44.3125C76.1667 43.5417 77.2188 42.2396 78.4688 40.4062ZM72 29.25C72 26.9583 71.2292 25.5729 69.6875 25.0938C67.8542 25.6562 66.4896 27.3021 65.5938 30.0312H71.9375C71.9375 29.9479 71.9479 29.8229 71.9688 29.6562C71.9896 29.4896 72 29.3542 72 29.25ZM112.188 28.3125C112.188 29.5833 111.656 30.375 110.594 30.6875C110.302 31.2292 110.302 31.7188 110.594 32.1562C111.656 32.1562 112.552 31.7917 113.281 31.0625C114.01 30.3333 114.375 29.4167 114.375 28.3125C114.375 26.3542 113.458 24.75 111.625 23.5C109.792 22.2292 107.396 21.5938 104.438 21.5938C100.312 21.5938 96.8542 22.9896 94.0625 25.7812C91.2917 28.5729 89.9062 32.2292 89.9062 36.75C89.9062 41.4375 91.1979 44.9688 93.7812 47.3438C96.3646 49.7188 99.4062 50.9062 102.906 50.9062C105.469 50.9062 107.844 50.2188 110.031 48.8438C112.24 47.4479 113.854 45.3542 114.875 42.5625C114.583 42.2292 114.177 42 113.656 41.875C113.115 42.6458 112.667 43.2188 112.312 43.5938C111.979 43.9479 111.427 44.4583 110.656 45.125C109.885 45.7708 109.021 46.25 108.062 46.5625C107.104 46.8542 106.052 47 104.906 47C101.656 47 99.2708 46.0521 97.75 44.1562C96.25 42.2396 95.5 39.7708 95.5 36.75C95.5 28 98.4792 23.625 104.438 23.625C106.833 23.625 108.719 24.0208 110.094 24.8125C111.49 25.6042 112.188 26.7708 112.188 28.3125ZM113.094 40.6562C114.49 40.8229 115.573 41.3958 116.344 42.375C115.156 45.625 113.323 48.0729 110.844 49.7188C108.365 51.3646 105.719 52.1875 102.906 52.1875C99.1146 52.1875 95.7812 50.8958 92.9062 48.3125C90.0521 45.7292 88.625 41.875 88.625 36.75C88.625 31.8542 90.125 27.8958 93.125 24.875C96.1458 21.8333 99.9167 20.3125 104.438 20.3125C107.771 20.3125 110.469 21.0625 112.531 22.5625C114.615 24.0417 115.656 25.9583 115.656 28.3125C115.656 29.75 115.167 30.8958 114.188 31.75C113.229 32.6042 112.031 33.0312 110.594 33.0312C107.99 33.0312 106.688 31.8854 106.688 29.5938C106.688 28.1354 107.583 27.0833 109.375 26.4375C108.188 25.625 106.948 25.1562 105.656 25.0312C101.823 25.5938 99.9062 29.5 99.9062 36.75C99.9062 42.2083 101.927 45.1771 105.969 45.6562C108.406 45.3438 110.781 43.6771 113.094 40.6562ZM131.062 6.09375C135.771 6.09375 138.125 7.80208 138.125 11.2188C138.125 14.6354 135.771 16.3438 131.062 16.3438C130.354 16.3438 129.688 16.2083 129.062 15.9375C128.458 15.6667 127.927 15.3021 127.469 14.8438C127.01 14.3646 126.646 13.8125 126.375 13.1875C126.104 12.5625 125.969 11.9062 125.969 11.2188C125.969 10.5312 126.104 9.875 126.375 9.25C126.646 8.625 127.01 8.08333 127.469 7.625C127.927 7.14583 128.458 6.77083 129.062 6.5C129.688 6.22917 130.354 6.09375 131.062 6.09375ZM128.188 8.53125C127.562 9.26042 127.25 10.1562 127.25 11.2188C127.25 11.7604 127.333 12.2708 127.5 12.75C127.688 13.2083 127.938 13.6146 128.25 13.9688C128.562 14.3021 128.917 14.5729 129.312 14.7812C129.729 14.9688 130.167 15.0625 130.625 15.0625C131.062 15.0625 131.49 14.9688 131.906 14.7812C132.323 14.5729 132.688 14.3021 133 13.9688C133.312 13.6146 133.562 13.2083 133.75 12.75C133.938 12.2708 134.031 11.7604 134.031 11.2188C134.031 10.6771 133.938 10.1771 133.75 9.71875C133.562 9.23958 133.312 8.83333 133 8.5C132.688 8.14583 132.323 7.875 131.906 7.6875C131.49 7.47917 131.062 7.375 130.625 7.375C130.188 7.375 129.76 7.46875 129.344 7.65625C128.927 7.84375 128.542 8.13542 128.188 8.53125ZM140.812 48.5625C135.854 48.1042 133.354 47.1042 133.312 45.5625C133.104 39.3125 133.021 31.6354 133.062 22.5312C132.896 22.1979 132.531 21.9271 131.969 21.7188C129.073 23.0729 126.062 23.9271 122.938 24.2812C122.812 24.7812 122.812 25.2708 122.938 25.75C125.292 25.875 127.083 26.3021 128.312 27.0312C128.5 34.8021 128.479 40.9792 128.25 45.5625C128.208 47.1042 126.438 48.1042 122.938 48.5625C122.729 49.0833 122.729 49.5938 122.938 50.0938C128.917 49.9688 134.875 49.9688 140.812 50.0938C141.021 49.5938 141.021 49.0833 140.812 48.5625ZM141.969 47.4062C142.302 48.6979 142.302 49.9583 141.969 51.1875C135.26 50.9792 128.542 50.9792 121.812 51.1875C121.458 49.9583 121.458 48.6979 121.812 47.4062C125.208 47.0729 126.927 46.4375 126.969 45.5C127.24 39.6667 127.26 33.7604 127.031 27.7812C125.635 27.3646 123.896 27.0938 121.812 26.9688C121.333 25.7188 121.333 24.3958 121.812 23C124.958 22.8333 128.5 21.8958 132.438 20.1875C134.688 20.3542 136.365 21.0312 137.469 22.2188C137.385 32.4688 137.469 40.2292 137.719 45.5C137.781 46.4375 139.198 47.0729 141.969 47.4062ZM163.656 25.6875C166.115 25.6875 167.979 26.6875 169.25 28.6875C170.542 30.6875 171.188 33.2292 171.188 36.3125C171.188 40.8333 170.385 44.0521 168.781 45.9688C167.198 47.8854 165.469 48.8438 163.594 48.8438C160.01 48.8438 157.51 47.5208 156.094 44.875V28.625C158.49 26.6667 161.01 25.6875 163.656 25.6875ZM169.906 36.3125C169.906 33.875 169.458 31.8021 168.562 30.0938C167.667 28.3854 166.365 27.3854 164.656 27.0938C163.219 27.3021 161.833 28 160.5 29.1875V44.6875C161.312 46.2708 162.615 47.2083 164.406 47.5C165.906 47.2083 167.198 46.1875 168.281 44.4375C169.365 42.6875 169.906 39.9792 169.906 36.3125ZM145.281 25.75H145.344C148.156 25.875 150.156 26.3021 151.344 27.0312C151.344 42.9896 151.323 54.7604 151.281 62.3438C151.24 63.8854 149.469 64.8958 145.969 65.375C145.844 65.8333 145.844 66.3229 145.969 66.8438C151.427 66.5729 157.385 66.5729 163.844 66.8438C164.094 66.3646 164.094 65.875 163.844 65.375C158.885 64.8958 156.385 63.8854 156.344 62.3438L156.156 49.8125C158.198 50.5417 160.375 50.9062 162.688 50.9062C165.125 50.9062 167.271 50.4167 169.125 49.4375C170.979 48.4375 172.427 47.1458 173.469 45.5625C174.51 43.9583 175.292 42.25 175.812 40.4375C176.354 38.625 176.625 36.7604 176.625 34.8438C176.625 30.7812 175.698 27.5625 173.844 25.1875C171.99 22.7917 169.594 21.5938 166.656 21.5938C163.073 21.5938 159.552 23.125 156.094 26.1875V22.5312C155.927 22.1979 155.562 21.9271 155 21.7188C152.229 23.0312 149.01 23.8854 145.344 24.2812C145.177 24.7396 145.156 25.2292 145.281 25.75ZM144.312 23C148.375 22.6458 152.042 21.6354 155.312 19.9688C157.583 20.1562 159.271 20.8438 160.375 22.0312C162.333 20.8854 165.177 20.3125 168.906 20.3125C172.49 20.3125 175.406 21.625 177.656 24.25C179.927 26.875 181.062 30.4062 181.062 34.8438C181.062 36.9271 180.75 38.9479 180.125 40.9062C179.5 42.8646 178.583 44.7083 177.375 46.4375C176.167 48.1667 174.479 49.5521 172.312 50.5938C170.167 51.6562 167.708 52.1875 164.938 52.1875C163.146 52.1875 161.688 52.1458 160.562 52.0625L160.75 62.2812C160.792 63.0938 162.208 63.7396 165 64.2188C165.542 65.4479 165.542 66.75 165 68.125C156.667 67.8125 150.01 67.7604 145.031 67.9688C144.552 66.6562 144.552 65.4062 145.031 64.2188C148.302 63.7812 149.958 63.1354 150 62.2812L150.062 27.7812C148.708 27.3646 146.812 27.0938 144.375 26.9688C143.833 25.7188 143.812 24.3958 144.312 23ZM201.344 23.625C203.01 23.625 204.219 24.1667 204.969 25.25C205.719 26.3125 206.094 27.6458 206.094 29.25C206.094 29.8542 205.99 30.5417 205.781 31.3125H193.594C194.24 28.7083 195.281 26.7812 196.719 25.5312C198.177 24.2604 199.719 23.625 201.344 23.625ZM193.281 33.4375H210.312C210.646 32.3958 210.812 31.3229 210.812 30.2188C210.812 27.7812 210.115 25.7396 208.719 24.0938C207.344 22.4271 205.146 21.5938 202.125 21.5938C198.188 21.5938 194.875 23.0208 192.188 25.875C189.5 28.7292 188.156 32.3542 188.156 36.75C188.156 41.4375 189.438 44.9688 192 47.3438C194.562 49.7188 197.573 50.9062 201.031 50.9062C203.594 50.9062 205.969 50.2188 208.156 48.8438C210.365 47.4479 211.979 45.3542 213 42.5625C212.708 42.2292 212.302 42 211.781 41.875C211.698 42 211.448 42.3438 211.031 42.9062C210.635 43.4479 210.344 43.8438 210.156 44.0938C209.969 44.3229 209.625 44.6667 209.125 45.125C208.646 45.5625 208.177 45.8854 207.719 46.0938C207.281 46.3021 206.719 46.5104 206.031 46.7188C205.344 46.9062 204.594 47 203.781 47C200.573 47 198.021 46.0521 196.125 44.1562C194.229 42.2396 193.24 39.6667 193.156 36.4375C193.156 35.7083 193.198 34.7083 193.281 33.4375ZM211.281 40.4062C212.594 40.6979 213.656 41.3542 214.469 42.375C213.281 45.625 211.448 48.0729 208.969 49.7188C206.49 51.3646 203.844 52.1875 201.031 52.1875C197.198 52.1875 193.875 50.8958 191.062 48.3125C188.271 45.7292 186.875 41.875 186.875 36.75C186.875 32.1042 188.302 28.2083 191.156 25.0625C194.031 21.8958 198.094 20.3125 203.344 20.3125C211.281 20.3125 215.25 23.6146 215.25 30.2188C215.25 31.5104 214.948 33.0104 214.344 34.7188H197.562V36.75C197.667 39.2708 198.354 41.3229 199.625 42.9062C200.896 44.4688 202.646 45.3854 204.875 45.6562C206.188 45.5312 207.271 45.0833 208.125 44.3125C208.979 43.5417 210.031 42.2396 211.281 40.4062ZM204.812 29.25C204.812 26.9583 204.042 25.5729 202.5 25.0938C200.667 25.6562 199.302 27.3021 198.406 30.0312H204.75C204.75 29.9479 204.76 29.8229 204.781 29.6562C204.802 29.4896 204.812 29.3542 204.812 29.25Z" fill="black"/>
<path d="M255.75 6.75C254.688 6.79167 254.062 7.04167 253.875 7.5C253.688 7.9375 253.823 8.72917 254.281 9.875L263.906 33.5625L267.719 23.3125L262.344 9.8125C261.885 8.70833 261.323 7.94792 260.656 7.53125C259.99 7.09375 258.938 6.83333 257.5 6.75C256.979 5.41667 256.979 4.17708 257.5 3.03125H279.562C280.083 4.17708 280.083 5.41667 279.562 6.75C277.312 6.83333 275.844 7.14583 275.156 7.6875C274.469 8.20833 274.302 8.9375 274.656 9.875L283.594 33.375L292.375 9.875C292.792 8.72917 292.646 7.96875 291.938 7.59375C291.25 7.19792 289.854 6.91667 287.75 6.75C287.25 5.41667 287.25 4.17708 287.75 3.03125H306.312C306.833 4.17708 306.833 5.41667 306.312 6.75C303.167 6.95833 301.146 7.27083 300.25 7.6875C299.312 8.16667 298.646 8.89583 298.25 9.875L282.25 52.1875H279.062L270.688 30.5938L262.531 52.1875H259.406L241.938 9.875C241.521 8.85417 240.781 8.13542 239.719 7.71875C238.677 7.28125 237.115 6.95833 235.031 6.75C234.51 5.41667 234.51 4.17708 235.031 3.03125H255.75C256.271 4.17708 256.271 5.41667 255.75 6.75ZM254.688 4.0625H236.125C235.854 4.47917 235.854 4.96875 236.125 5.53125C239.875 5.90625 242.198 7.1875 243.094 9.375L260.25 50.9062H261.656L270.531 27.0938L279.969 50.9062H281.375L297.25 8.96875C297.708 7.78125 298.542 6.95833 299.75 6.5C300.979 6.02083 302.719 5.69792 304.969 5.53125C305.24 4.96875 305.24 4.47917 304.969 4.0625H289.094C288.844 4.47917 288.844 4.96875 289.094 5.53125C291.573 5.82292 293.094 6.20833 293.656 6.6875C294.344 7.22917 294.49 7.98958 294.094 8.96875L281.938 41.6875L269.594 9.375C269.115 8.25 269.604 7.375 271.062 6.75C272.521 6.10417 274.906 5.69792 278.219 5.53125C278.49 4.96875 278.49 4.47917 278.219 4.0625H258.594C258.323 4.47917 258.323 4.96875 258.594 5.53125C259.906 5.65625 260.938 6 261.688 6.5625C262.438 7.10417 263.062 8.04167 263.562 9.375L269.062 23.3125L262.219 41.6875L249.094 9.375C248.385 7.95833 248.458 7.02083 249.312 6.5625C250.167 6.08333 251.958 5.73958 254.688 5.53125C254.938 4.96875 254.938 4.47917 254.688 4.0625ZM323.156 23.625C325.302 23.625 327 24.6562 328.25 26.7188C329.521 28.7604 330.156 31.9375 330.156 36.25C330.156 40.5625 329.521 43.7396 328.25 45.7812C327 47.8229 325.302 48.8438 323.156 48.8438C321.969 48.8438 320.885 48.5938 319.906 48.0938C318.948 47.5938 318.125 46.8229 317.438 45.7812C316.771 44.7396 316.25 43.4375 315.875 41.875C315.5 40.2917 315.312 38.4167 315.312 36.25C315.312 34.1042 315.5 32.2396 315.875 30.6562C316.25 29.0521 316.771 27.7396 317.438 26.7188C318.125 25.6771 318.948 24.9062 319.906 24.4062C320.885 23.8854 321.969 23.625 323.156 23.625ZM323.156 50.9062C325.094 50.9062 326.833 50.5417 328.375 49.8125C329.917 49.0833 331.229 48.0729 332.312 46.7812C333.417 45.4688 334.26 43.9167 334.844 42.125C335.427 40.3333 335.719 38.375 335.719 36.25C335.719 34.125 335.427 32.1667 334.844 30.375C334.26 28.5833 333.417 27.0417 332.312 25.75C331.229 24.4375 329.917 23.4167 328.375 22.6875C326.833 21.9583 325.094 21.5938 323.156 21.5938C321.094 21.5938 319.229 21.9583 317.562 22.6875C315.896 23.4167 314.479 24.4271 313.312 25.7188C312.167 27.0104 311.281 28.5625 310.656 30.375C310.031 32.1667 309.719 34.125 309.719 36.25C309.719 38.3958 310.031 40.3646 310.656 42.1562C311.281 43.9479 312.167 45.5 313.312 46.8125C314.479 48.1042 315.896 49.1146 317.562 49.8438C319.229 50.5521 321.094 50.9062 323.156 50.9062ZM324.25 20.3125C326.771 20.3125 329.01 20.6979 330.969 21.4688C332.948 22.2396 334.615 23.3333 335.969 24.75C337.323 26.1458 338.354 27.8229 339.062 29.7812C339.771 31.7396 340.125 33.8958 340.125 36.25C340.125 38.5833 339.771 40.7292 339.062 42.6875C338.354 44.6458 337.323 46.3333 335.969 47.75C334.635 49.1458 332.979 50.2292 331 51C329.021 51.7917 326.771 52.1875 324.25 52.1875C321.75 52.1875 319.51 51.7917 317.531 51C315.573 50.2292 313.917 49.1458 312.562 47.75C311.229 46.3333 310.208 44.6562 309.5 42.7188C308.792 40.7604 308.438 38.6042 308.438 36.25C308.438 33.8958 308.792 31.7396 309.5 29.7812C310.208 27.8229 311.24 26.1458 312.594 24.75C313.948 23.3333 315.604 22.2396 317.562 21.4688C319.521 20.6979 321.75 20.3125 324.25 20.3125ZM319.719 36.25C319.719 42.9792 321.229 46.7083 324.25 47.4375C327.333 46.7083 328.875 42.9792 328.875 36.25C328.875 29.5833 327.333 25.8438 324.25 25.0312C321.229 25.8438 319.719 29.5833 319.719 36.25ZM357.125 32.4062C357.646 30.4896 358.719 28.625 360.344 26.8125C361.969 25 363.625 24.0938 365.312 24.0938C367.292 24.0938 368.281 24.7292 368.281 26C368.281 27.1458 367.74 27.875 366.656 28.1875C366.365 28.6042 366.365 29.0938 366.656 29.6562C367.781 29.6562 368.698 29.3125 369.406 28.625C370.135 27.9375 370.5 26.9792 370.5 25.75C370.5 24.4583 370.104 23.4479 369.312 22.7188C368.542 21.9688 367.531 21.5938 366.281 21.5938C364.656 21.5938 363.021 22.25 361.375 23.5625C359.75 24.8542 358.333 26.3021 357.125 27.9062V22.5312C356.958 22.1979 356.604 21.9271 356.062 21.7188C353.271 23.0312 350.042 23.8854 346.375 24.2812C346.25 24.7812 346.25 25.2708 346.375 25.75C349.188 25.875 351.198 26.3021 352.406 27.0312C352.573 34.8021 352.552 41.0312 352.344 45.7188C352.302 47.2604 350.531 48.2604 347.031 48.7188C346.719 49.2812 346.719 49.7708 347.031 50.1875C352.49 49.9375 358.438 49.9375 364.875 50.1875C365.167 49.7708 365.167 49.2812 364.875 48.7188C359.938 48.2604 357.448 47.2604 357.406 45.7188C357.219 41.4896 357.125 37.0521 357.125 32.4062ZM361.812 45.6562C361.854 46.4688 363.26 47.1042 366.031 47.5625C366.719 48.9375 366.677 50.2604 365.906 51.5312C357.073 51.2396 350.396 51.1771 345.875 51.3438C345.104 50.1146 345.062 48.8542 345.75 47.5625C349.25 47.1042 351.021 46.4688 351.062 45.6562C351.312 39.7188 351.333 33.7604 351.125 27.7812C349.75 27.3646 347.854 27.0938 345.438 26.9688C344.958 25.7188 344.958 24.3958 345.438 23C348.917 22.7917 352.604 21.8542 356.5 20.1875C358.75 20.4375 360.438 21.1146 361.562 22.2188C363.312 20.9479 364.885 20.3125 366.281 20.3125C367.906 20.3125 369.229 20.7917 370.25 21.75C371.271 22.7083 371.781 24.0417 371.781 25.75C371.781 27.375 371.302 28.6458 370.344 29.5625C369.385 30.4792 368.156 30.9375 366.656 30.9375C365.26 30.9375 364.094 30.4688 363.156 29.5312C362.302 30.6771 361.771 31.7188 361.562 32.6562C361.562 37.1771 361.646 41.5104 361.812 45.6562ZM395.562 48.5625C390.604 48.1042 388.104 47.1042 388.062 45.5625C387.854 34.0208 387.771 19.9479 387.812 3.34375C387.646 3.01042 387.281 2.72917 386.719 2.5C383.823 3.875 380.812 4.72917 377.688 5.0625C377.562 5.58333 377.562 6.07292 377.688 6.53125C380.042 6.67708 381.833 7.10417 383.062 7.8125C383.229 23.4792 383.208 36.0625 383 45.5625C382.958 47.1042 381.188 48.1042 377.688 48.5625C377.479 49.0833 377.479 49.5938 377.688 50.0938C382.521 49.9271 388.479 49.9271 395.562 50.0938C395.771 49.5938 395.771 49.0833 395.562 48.5625ZM396.688 47.4062C397.042 48.6979 397.042 49.9583 396.688 51.1875C388.667 51.0208 381.948 51.0208 376.531 51.1875C376.198 49.9583 376.198 48.6979 376.531 47.4062C379.948 47.0729 381.677 46.4375 381.719 45.5C381.969 33.2708 381.99 20.9688 381.781 8.59375C380.385 8.15625 378.635 7.875 376.531 7.75C376.073 6.52083 376.073 5.19792 376.531 3.78125C379.698 3.61458 383.24 2.67708 387.156 0.96875C389.427 1.13542 391.115 1.82292 392.219 3.03125C392.135 21.5938 392.219 35.75 392.469 45.5C392.51 46.4375 393.917 47.0729 396.688 47.4062ZM416.75 46.8125C414.271 46.8125 412.385 45.8125 411.094 43.8125C409.823 41.7917 409.188 39.25 409.188 36.1875C409.188 33.7083 409.438 31.5833 409.938 29.8125C410.458 28.0417 411.135 26.7396 411.969 25.9062C412.802 25.0729 413.615 24.4896 414.406 24.1562C415.198 23.8021 416 23.625 416.812 23.625C419.75 23.625 421.948 24.8646 423.406 27.3438V31.875C423.406 37.5625 423.385 41.4271 423.344 43.4688C421.031 45.6979 418.833 46.8125 416.75 46.8125ZM437.156 47.5C437.844 48.875 437.802 50.1979 437.031 51.4688C431.698 51.3021 427.219 51.3021 423.594 51.4688C422.823 51.1354 422.333 50.7083 422.125 50.1875C420.104 51.5208 417.302 52.1875 413.719 52.1875C410.177 52.1875 407.302 50.8646 405.094 48.2188C402.906 45.5729 401.812 41.9688 401.812 37.4062C401.812 35.3854 402.115 33.4167 402.719 31.5C403.323 29.5833 404.229 27.7708 405.438 26.0625C406.646 24.3542 408.323 22.9688 410.469 21.9062C412.635 20.8438 415.104 20.3125 417.875 20.3125C419.771 20.3125 421.188 20.3542 422.125 20.4375C422.083 17.1458 422.062 13.1979 422.062 8.59375C420.688 8.15625 418.781 7.875 416.344 7.75C415.885 6.52083 415.885 5.19792 416.344 3.78125C419.26 3.53125 422.958 2.59375 427.438 0.96875C429.688 1.13542 431.365 1.82292 432.469 3.03125C432.469 26.8021 432.562 41.0104 432.75 45.6562C432.792 46.5521 434.26 47.1667 437.156 47.5ZM422.125 27.6562C421.083 26.1771 419.719 25.3021 418.031 25.0312C416.573 25.3438 415.323 26.3542 414.281 28.0625C413.24 29.75 412.719 32.4583 412.719 36.1875C412.719 38.6042 413.135 40.6562 413.969 42.3438C414.823 44.0312 416.104 45.0521 417.812 45.4062C419.188 45.0938 420.604 44.2812 422.062 42.9688C422.104 40.9062 422.125 37.2083 422.125 31.875V27.6562ZM436 48.6562C434.938 48.5729 434.125 48.4896 433.562 48.4062C433.021 48.3229 432.25 48.1771 431.25 47.9688C430.271 47.7396 429.531 47.4479 429.031 47.0938C428.552 46.7188 428.312 46.2604 428.312 45.7188C428.146 41.0729 428.062 26.9479 428.062 3.34375C427.854 2.96875 427.49 2.6875 426.969 2.5C424.198 3.83333 420.979 4.6875 417.312 5.0625C417.188 5.58333 417.188 6.07292 417.312 6.53125C420.125 6.67708 422.135 7.10417 423.344 7.8125C423.344 13.7083 423.365 18.6354 423.406 22.5938C421.26 21.9271 419.417 21.5938 417.875 21.5938C415.417 21.5938 413.24 22.0833 411.344 23.0625C409.469 24.0417 408 25.3333 406.938 26.9375C405.875 28.5208 405.073 30.1979 404.531 31.9688C404.01 33.7396 403.75 35.5521 403.75 37.4062C403.75 41.5729 404.677 44.8646 406.531 47.2812C408.385 49.6979 410.615 50.9062 413.219 50.9062C416.51 50.9062 419.854 49.2188 423.25 45.8438C423.25 47.5938 423.208 48.7188 423.125 49.2188C423.354 49.6979 423.615 50.0208 423.906 50.1875C424.594 50.1458 425.271 50.1042 425.938 50.0625C426.625 50.0208 427.167 49.9896 427.562 49.9688C427.979 49.9479 428.344 49.9375 428.656 49.9375C429.802 49.9375 432.25 50 436 50.125C436.292 49.7083 436.292 49.2188 436 48.6562Z" fill="#AA5522"/>
</svg>
